<svg width="42" height="42" viewBox="0 0 42 42" fill="none" xmlns="http://www.w3.org/2000/svg">
<path d="M5 18.2091C11.702 18.2091 18.381 18.1606 25.0731 18.5855C28.7931 18.8216 32.8706 19.4024 36.6151 18.9618C36.6675 18.9557 33.9253 14.8024 33.5623 14.3199C31.3976 11.4428 28.5383 9.30902 26.3067 6.56251C25.8938 6.05424 25.2584 5.78913 24.9476 5.24522C24.295 4.1031 26.6324 7.26622 27.4986 8.25618C30.0537 11.1764 32.1155 14.3197 34.5451 17.2891C35.3986 18.3322 36.6806 19.091 36.6151 20.4673C36.5307 22.2407 35.542 23.3902 34.3569 24.6074C31.5527 27.4874 28.9962 30.6541 25.9095 33.243C24.7894 34.1824 23.707 36.1866 22.313 36.6512" stroke="#8000FF" stroke-width="10" stroke-linecap="round"/>
</svg>
