<svg width="50" height="49" viewBox="0 0 50 49" fill="none" xmlns="http://www.w3.org/2000/svg">
<path d="M19.8322 5C13.6899 9.60672 9.41171 14.325 5.32941 20.74C3.90181 22.9834 7.53975 19.9717 8.14749 19.5715C14.6889 15.2638 21.2632 9.83922 28.3552 6.51214C28.6561 6.37098 33.7355 3.99578 33.304 5.7217C32.7312 8.0127 29.5431 10.5524 28.0802 12.217C23.9852 16.8769 19.6283 21.2904 15.3989 25.8263C14.8738 26.3894 7.19407 32.7648 11.6529 32.1498C18.7818 31.1665 25.1018 25.3662 30.589 21.118C32.1566 19.9045 33.4358 18.276 35.2973 17.5095C36.1615 17.1537 30.1508 26.0684 29.5924 26.7886C27.0318 30.0904 24.2708 33.1685 21.4818 36.2738C20.278 37.6141 17.7262 39.849 17.2203 41.7037C16.9667 42.6337 21.9333 40.846 22.1691 40.7415C25.2457 39.3777 28.1971 37.6817 31.242 36.2394C31.9175 35.9194 40.1687 30.9695 40.7272 31.7374C41.8831 33.3268 34.6604 41.1269 33.5789 42.4598C30.4313 46.3395 35.1079 43.1328 36.6719 42.1161C39.2061 40.4689 42.3499 38.1157 45.1949 37.1673" stroke="#8000FF" stroke-width="9" stroke-linecap="round"/>
</svg>
