<svg width="700" height="431" viewBox="0 0 700 431" fill="none" xmlns="http://www.w3.org/2000/svg">
<path d="M23.2514 18.3446C20.3539 20.1416 12.1622 28.5151 10.4011 30.7165C8.68139 32.8661 9.15697 35.0046 9.15697 37.8355V64.9293C9.15697 90.0483 5.1019 115.195 4.24968 140.336C2.7077 185.824 8.45962 229.689 17.3127 274.215C21.5287 295.419 22.8421 316.947 22.8421 338.563C22.8421 349.494 23.9181 360.331 24.0862 371.255C24.1466 375.179 23.9872 383.305 25.6068 387.152C30.2473 398.173 47.626 410.044 58.299 413.831C73.0768 419.074 89.3124 419.078 104.745 420.12C123.248 421.371 141.791 421.468 160.315 422.056C205.298 423.484 250.276 423.231 295.3 423.231H346.723C368.678 423.231 390.4 425.332 412.315 425.65C456.888 426.296 501.531 424.566 546.056 426.686C563.012 427.494 580.089 426.963 597.064 426.963C605.63 426.963 614.843 427.959 623.329 426.686C639.491 424.262 671.076 425.345 678.207 406.09C688.7 377.759 685.948 347.518 685.948 317.482V259.7C685.948 230.317 690.474 201.32 692.1 172.06C694.463 129.522 695.901 87.2114 695.901 44.5398C695.901 30.9755 685.033 25.8573 675.374 18.3446C666.007 11.0597 648.786 9.80018 637.705 7.70057C619.909 4.3288 602.334 3.96826 584.208 3.96826C516.592 3.96826 449.833 15.1652 382.111 15.1652C315.961 15.1652 249.619 16.9358 183.608 12.677C160.206 11.1672 136.845 11.4329 113.385 11.4329C97.0028 11.4329 80.7839 13.9211 64.5195 13.9211C54.8724 13.9211 44.7272 16.4093 35.2831 16.4093C33.1411 16.4093 26.9929 17.0562 23.2514 18.3446ZM23.2514 18.3446C21.7941 18.8464 20.7019 19.4455 20.3539 20.1416M41.0174 31.394C29.276 31.394 31.5456 77.7752 31.5456 86.0546C31.5456 133.029 33.9135 179.738 33.9135 226.751C33.9135 252.111 36.2445 277.734 38.5372 302.937L38.7152 304.894C39.5938 314.559 43.1734 323.821 43.3854 333.573C43.5617 341.684 44.2158 352.624 46.9373 360.278L47.0846 360.692C51.1575 372.152 53.3755 378.393 66.473 382.379C83.6304 387.601 102.073 392.117 120.081 392.509C129.192 392.707 138.278 394.877 147.444 394.877H253.016C268.586 394.877 283.712 396.56 299.126 398.166C333.09 401.704 367.424 401.981 401.54 401.981C456.721 401.981 511.418 393.693 566.706 393.693C577.445 393.693 588.199 393.851 598.936 393.693C609.134 393.543 619.109 390.888 629.194 390.141C636.424 389.605 640.844 383.238 646.625 380.669C654.057 377.366 656.828 363.203 658.464 356.332C662.805 338.103 664.976 317.65 664.976 298.974C664.976 278.943 664.351 259.769 660.898 240.038C659.048 229.468 660.307 218.403 658.793 207.807C657.185 196.551 654.714 185.303 653.4 173.998C650.428 148.441 650.768 123.151 650.768 97.434C650.768 84.4206 653.22 68.5426 647.874 56.3235C643.6 46.5536 626.701 41.3106 616.696 40.8659C600.848 40.1615 584.938 39.6819 568.942 39.6819H216.115C175.104 39.6819 134.348 36.13 93.3758 36.13C81.5517 36.13 69.7931 33.762 58.1852 33.762C54.4857 33.762 40.1528 35.5847 38.6494 32.578" stroke="#8000FF" stroke-width="7" stroke-linecap="round"/>
</svg>
