<svg width="285" height="379" viewBox="0 0 285 379" fill="none" xmlns="http://www.w3.org/2000/svg">
<path d="M61.7292 270.443C58.1055 275.498 54.9541 284.145 54.9541 290.538C57.5689 291.845 58.5909 292.616 61.8832 292.616C65.4579 292.616 67.6763 291.631 71.045 290.384C82.5475 286.124 90.0098 269.989 96.8365 260.704C104.69 250.023 110.649 238.307 120.164 228.792C124.438 224.519 127.198 219.875 130.481 214.857C134.595 208.569 138.927 202.683 143.569 196.764C148.906 189.96 153.314 182.556 158.428 175.592C163.509 168.673 169.898 163.252 176.675 158.077C192.874 145.707 206.917 129.984 221.098 115.386C230.392 105.818 236.454 93.6494 245.273 83.6278C250.247 77.9757 255.043 72.2078 259.67 66.2666C268.063 55.4887 276.407 44.2509 280.303 31.0053C281.792 25.942 284.785 2.22371 274.837 3.01957C265.944 3.731 261.764 10.487 255.705 15.9153C246.971 23.7391 238.579 31.0257 230.799 39.8592C219.303 52.9103 207.56 65.6527 196.538 79.1239C159.561 124.318 125.212 171.449 96.2976 222.209C86.3351 239.699 73.361 254.22 61.7292 270.443Z" fill="#8000FF" stroke="#8000FF" stroke-width="6" stroke-linecap="round"/>
<path d="M65.7339 287.548C56.6896 287.548 46.8971 286.342 37.9661 287.618C34.153 288.163 30.2957 294.029 27.5882 296.383C19.9683 303.009 14.6006 312.219 10.4787 321.346C6.21143 330.795 5.14956 336.564 5.14956 346.87C5.14956 353.15 5.62546 359.604 4.51847 365.803C3.32871 372.465 3.88739 381.293 3.88739 368.888C3.88739 354.672 13.1092 352.81 25.0639 348.132C29.4426 346.419 32.843 345.085 36.774 342.382C42.3908 338.521 48.8192 337.458 54.3042 333.687C62.1855 328.269 64.7284 314.926 66.7156 306.481C68.0966 300.611 66.3036 293.043 64.4718 287.548" stroke="#8000FF" stroke-width="12" stroke-linecap="round"/>
<path d="M7.83374 345.101C7.83374 341.321 5.68733 329.397 11.3368 328.142C14.1495 327.517 12.7361 336.753 12.6157 337.873C12.1903 341.829 6.63234 352.197 9.44627 349.383C13.1152 345.714 16.2769 342.234 20.734 339.263C22.0363 338.394 30.5001 333.878 27.1841 337.984C23.8105 342.161 21.0446 345.991 16.3412 348.604C14.7736 349.475 13.2768 348.826 11.8373 350.106C3.61592 357.413 31.039 331.063 41.252 335.148C41.6875 335.322 34.2192 340.015 33.4118 340.319C30.0464 341.587 25.301 340.958 22.3465 342.599C17.861 345.091 19.9985 339.677 21.29 337.094C22.865 333.944 21.7382 331.426 19.6219 329.309C17.5745 327.262 16.8417 318.185 16.8417 321.08C16.8417 325.009 16.8417 328.939 16.8417 332.868C16.8417 333.403 16.8417 338.327 16.8417 335.593C16.8417 333.262 17.7912 327.769 16.3412 326.029C13.9515 323.161 17.9939 316.38 14.8399 323.082C13.5005 325.928 9.81719 330.08 13.839 331.867C17.8205 333.637 18.8434 329.114 18.8434 332.868C18.8434 339.991 17.8426 330.674 17.8426 328.086" stroke="#FF005C" stroke-width="6" stroke-linecap="round"/>
</svg>
