<svg width="192" height="207" viewBox="0 0 192 207" fill="none" xmlns="http://www.w3.org/2000/svg">
<path d="M20 144.135C26.6631 133.364 39.374 124.677 48.713 116.156C58.1956 107.504 67.1468 98.3122 76.2202 89.2324C82.2031 83.2452 87.5585 76.4443 91.8955 69.1717C98.0476 58.8555 107.071 51.4307 114.655 42.3236C120.598 35.1867 126.421 22.6236 134.701 17.8889C140.075 14.8159 146.543 10.7145 150.904 6.3502C156.939 0.311362 161.166 3.32617 166.504 8.38643C171.513 13.1349 176.397 15.5883 180.823 21.2826C188.191 30.763 193.163 39.579 184.139 49.1111C174.69 59.0917 166.571 74.1632 154.295 81.3891C141.693 88.8076 127.632 102.522 118.272 113.592C113.632 119.08 104.964 126.01 98.6781 129.505C93.1837 132.559 87.5723 139.425 83.4749 144.438L83.2289 144.739C78.5554 150.455 74.2762 156.426 69.1361 162.084C65.7789 165.78 63.9497 171.693 59.3391 174M19.3603 142C19.3603 150.243 20.2435 158.768 17.31 166.62C13.7815 176.064 7.55908 186.227 5.76736 196.118C5.51113 197.533 2.0344 202.341 3.2614 203.435C6.80814 206.6 21.1135 195.477 24.8278 194.441C32.4673 192.311 39.4791 188.863 46.0146 185.218C50.0022 182.995 56.9589 180.398 59 176.3M12.6594 185C11.773 192.737 4.33602 194.753 10.8305 194.549M10.8305 194.549C11.6732 194.522 12.7504 194.459 14.1069 194.365M10.8305 194.549C9.47067 195.887 8.26036 197.338 7.25843 198.796C5.86638 200.821 10.5152 199.883 11.2901 198.943C13.0471 196.813 14.2841 197.274 14.1069 194.365M10.8305 194.549C11.7493 193.645 12.7364 192.793 13.7736 192.026M14.1069 194.365C14.4206 194.343 14.7494 194.32 15.0936 194.295C17.2143 194.143 20.5973 193.019 21.9399 191.344C22.3925 190.78 20.2047 190.087 18.2301 189.456M14.1069 194.365C14.0826 193.967 14.032 193.506 13.9526 192.967C13.939 192.876 13.8647 192.52 13.7736 192.026M18.2301 189.456C16.8931 189.029 15.6539 188.63 15.3979 188.32C12.6449 184.982 13.3716 189.846 13.7736 192.026M18.2301 189.456C16.6825 190.1 15.1819 190.985 13.7736 192.026M18.2301 189.456C18.6521 189.28 19.0776 189.122 19.5056 188.984M22 140C32.6824 140 33.9792 141.434 31.5667 152.214C31.3672 153.106 28.6404 160.206 29.5926 160.206C33.792 160.206 37.8504 156.446 42.1963 156.286C49.1752 156.029 41.3575 167.245 48.7259 168.575C54.1882 169.562 61.1553 172.504 63 178M41 159C43.3464 158.707 45.8655 152.427 48.0731 150.873C53.1613 147.293 57.9017 142.791 62.5956 138.684C73.2491 129.362 82.878 116.794 92.3931 106.328C98.4033 99.7165 105.242 93.877 111.28 87.2904C116.22 81.9012 122.451 78.6277 127.684 73.6709C131.628 69.9344 136.051 66.0223 139.121 61.5563C141.599 57.9522 143.688 53.4374 148 52M129 29C132.993 29.3981 137.265 33.7822 140.284 36.0833C148.298 42.1934 155.949 48.4885 163.547 55.1111C169.149 59.9935 175.041 64.5398 180.728 69.3241C182.407 70.7365 184.302 71.9131 185 74M138 18C148.415 18 157.973 25.8575 165.59 31.9418C173.445 38.216 180.547 46.5436 189 52" stroke="#8000FF" stroke-width="5.5" stroke-linecap="round"/>
</svg>
