<svg width="636" height="105" viewBox="0 0 636 105" fill="none" xmlns="http://www.w3.org/2000/svg">
<path d="M36.3551 103.578H30.2307V102.802H24.1064V102.026H22.6731V101.25L21.1094 101.121L20.9791 100.345H16.4184V99.8276H14.2032V99.0517H13.4214L13.2911 98.1466H11.7274V97.3707H11.2062V96.5948H10.4244V95.9483H9.64256L9.51226 95.1724V94.3966H8.73043V92.7155H7.9486V92.1983L7.8183 91.4224H7.42738V90.7759L7.29708 89.6121V88.9655H6.51525V87.5431H5.73342V85.2155H4.95159V81.5948H4.03945V77.069L3.51823 76.9397V75.1293L3.64854 74.4828H4.03945V72.4138L4.82128 72.2845V70.9914L4.95159 69.9569H5.73342V68.5345H6.51525V66.8534H7.29708L7.42738 66.2069H12.6396V66.8534H13.4214V67.6293H14.2032V69.3103H14.9851V71.5086H15.5063L15.6366 72.6724V73.8362H16.2881L16.4184 76.9397H17.2002V78.3621H17.9821V79.1379H18.8942V79.9138H19.4154V81.5948H20.3276V82.1121H21.1094V83.7931H21.8912V84.569H23.3246V85.2155H24.8882V85.8621H31.1429V85.2155H33.3581V84.569H34.7914V83.7931H35.5732V83.0172H36.3551L36.4854 82.1121H37.2672V81.7241H37.9187V81.2069L38.5703 81.0776L38.8309 80.5603H39.4824V80.0431H40.2642V79.5259H41.0461L41.1764 78.8793H41.8279V77.9741H42.4794V74.6121H43.2612V73.5776H42.4794V70.9914H41.8279V70.4741H41.1764V69.3103H40.2642V68.7931H38.8309V68.4052L37.9187 68.2759V67.7586H37.2672V67.2414H36.4854V66.7241H36.2248L35.052 66.5948H34.5308L34.6611 66.3362V66.0776H34.0096V65.5603H32.7065V65.1724L31.4035 64.9138V64.5259H28.7974V64.0086H27.755V63.4914H26.061V62.7155H25.2792V62.069L23.064 61.9397V61.1638H21.6306V60.3879H20.067V59.8707L19.9367 59.7414H19.4154L19.1548 59.6121V58.8362H17.5912V58.5776L17.4609 58.1897H16.9396V57.2845H15.376V56.5086H14.5942V55.8621H13.1608V55.2155H12.379V54.8276L12.2487 54.569L11.4668 54.4397L11.5971 54.181V53.7931H10.685V53.1466H9.77287V52.6293L9.38195 52.5L9.25165 51.8534V51.2069H8.46982V50.5603H7.68799V49.7845H6.90616V48.6207H5.99403V47.9741L4.69098 47.8448V46.5517H3.77884V46.0345L2.99701 45.9052V43.9655H2.21518V42.6724H1.56366V40.0862H0.78183V37.3707H0V24.6983H0.78183V21.4655H1.56366V20.1724H2.21518V18.8793L2.99701 18.75V17.7155H3.77884V16.2931L5.47281 16.1638V15.5172H6.90616V14.8707H7.68799V14.3534H8.46982V13.5776H9.25165L9.38195 12.931H10.685V12.2845L11.4668 12.1552V11.6379H13.1608V10.9914H13.682V9.69827L14.4638 9.56897L14.5942 8.92241H15.5063V8.27586H20.5882L20.7185 7.75862L23.3246 7.62931V6.98275H24.1064V6.3362H31.7944V7.11207H35.052V7.88793H37.9187L38.049 8.53448H40.2642V9.31034H41.1764V10.0862L41.8279 10.2155V10.9914H42.4794L42.74 11.25V11.7672H44.1734V12.2845L45.0855 12.4138V13.1897H45.737V13.9655H46.2583L46.3886 14.4828V14.7414L47.1704 14.8707V16.1638H47.9522V17.7155H48.734L48.8643 18.6207H49.5159V19.9138H50.1674V21.2069L50.428 22.3707H50.9492L51.0795 22.8879V26.1207L51.8614 26.25V32.1983H51.0795V33.75H50.1674V35.1724H49.5159V35.9483L48.8643 36.0776L48.734 36.7241L48.0825 36.8534V37.1121L47.9522 37.6293H41.8279V36.8534H41.1764V36.0776L39.4824 35.9483V35.1724H38.7006V33.75H38.049V32.9741H37.3975L37.2672 30.7759L36.6157 30.6466L36.4854 27.5431H35.7036V26.25L35.052 26.1207V25.3448H34.1399V24.569H32.7065V23.7931H30.4914V23.1466H27.2337V23.7931H23.8458V24.3103H23.064V24.9569H22.2821V25.4741L21.37 25.6035V25.9914H20.8488V26.5086H19.9367V27.1552H19.1548V27.6724H17.5912L17.4609 28.7069H16.9396V30.9052L16.1578 31.0345V32.9741L15.376 33.1034V34.5259H16.1578V36.4655H16.9396V36.8534H17.4609V37.8879H18.373V38.4052H19.1548V39.0517H19.9367V40.0862H20.8488V40.7328H21.37V41.25H22.1518L22.2821 41.7672H23.064V42.2845H23.8458V42.8017H26.061V43.5776L27.6246 43.7069V45.1293H28.5368V45.9052H29.058V46.5517H29.8398V47.4569H30.752V48.2328H32.1853V48.8793H35.3126L35.4429 49.7845H37.5278V50.5603H39.8733V51.2069H40.5248L40.7854 52.1121H44.434V52.7586H45.9976L46.1279 53.5345H46.7795L46.9098 53.9224V54.181L47.5613 54.4397V54.9569L49.125 55.0862V55.7328H50.6886V56.25H51.4704V56.8965L52.2523 57.0259V57.6724H52.9038V58.0603L53.0341 58.319H53.8159V59.6121H54.5978V60.2586H55.2493V61.0345H55.9008V61.5517H56.6826L56.8129 62.3276H57.5948V63.4914H58.3766V64.7845H59.0281V67.5H59.1584L59.5494 67.6293H59.9403V68.0172H59.1584V68.5345L59.0281 69.9569L59.1584 71.5086V71.8966H59.9403V75.9052H60.5918V83.1466H59.9403V84.569H59.1584L59.0281 84.9569V85.7328H58.3766V88.9655H57.5948V89.6121H56.6826V90.2586L56.1614 90.3879L55.9008 90.7759V91.5517H55.2493V92.1983L54.5978 92.3276V93.6207H53.8159V94.0086H52.9038V94.7845H49.9068V95.431H49.125L48.9947 96.2069H48.4734L48.2128 96.8535H47.5613V97.3707H46.7795V98.0172H44.5643V99.4397H43.6521V100.086H41.9582L41.8279 100.603L40.9157 100.862V101.25H39.8733V102.026H37.9187V102.802H36.4854L36.3551 103.19V103.578Z" fill="#8000FF"/>
<path d="M92.261 105H92.0004L91.8701 104.741V104.483L90.8276 104.353V103.836H90.0458V103.06H87.3094L87.1791 101.121L86.3973 100.862V99.6983H85.4851V95.5603H84.4427V89.3534H83.7912V85.3448H84.4427V84.6983H83.7912V80.5603H83.1396V79.9138L83.0093 76.2931V72.931H82.4881V71.6379H83.0093V69.569H82.4881V60H81.7063V51.8534H81.0548V48.4914L80.4032 48.3621V43.7069H79.7517V39.4397L79.6214 38.9224H78.9699V35.431H78.3184V32.069H77.5365V29.3534H77.0153L76.885 28.8362V25.9914H76.2335L76.1032 23.9224H75.5819V22.5H74.8001V18.3621H74.1486V17.069L73.6274 16.9397V16.5517L73.3668 15.5172V15.1293H72.8455V10.2155H73.3668V9.69827L73.6274 8.66379V8.27586H74.1486V7.5H74.8001V6.85344H75.5819V6.07759H76.1032V4.78448H77.6668V4.13793H82.2275V4.78448H88.0912V4.13793L89.5246 4.00862V3.36206H90.9579V2.84483L91.2185 2.71551V1.93965H93.4337V1.42241H96.3004L96.561 0.646551H99.4277V0H118.713V0.646551H120.146V1.42241H121.84V1.93965H124.186V2.71551L125.098 2.84483V3.36206H125.749V4.13793H126.401V4.78448H128.095V5.56034H129.007V6.07759L129.789 6.20689V6.85344H130.44L130.701 7.37069L131.352 7.5V8.27586H132.004L132.134 9.56897H133.046V10.2155H133.568V12.2845H134.48V12.931H135.392V15L135.913 15.1293L136.174 15.6466V16.4224H136.956L137.086 18.3621H137.607V20.5603L137.737 23.4052V23.6638L138.389 23.9224L138.519 24.3103V26.25H139.171V33.4914H139.822L139.953 34.2672V37.3707L139.822 40.7328V41.5086H139.171L139.04 43.7069L138.389 43.8362V47.8448L137.607 47.9741V49.6552H137.086V50.3017H136.174L136.043 51.8534H135.522V52.7586H134.74L134.61 53.5345H134.089V54.4397L133.828 55.3448H133.307V56.7672H131.743V57.5431H131.222V58.319L130.31 58.4483L130.18 59.0948L129.528 59.3535V60H128.746V60.9052H127.965V61.681H127.313V62.5862H125.88V63.1035L124.316 63.4914V64.0086H123.664V64.3965L123.534 64.9138H122.883V65.6897H121.449V66.5948H119.104V67.1121H111.807V66.5948H108.81V65.819H105.031V65.1724L103.467 65.0431V64.3965H100.6V65.0431H99.8187V66.5948H99.2974V72.931H99.8187L99.949 74.6121H100.47L100.6 78.1035L101.252 78.2328V78.8793H101.904V81.9828H102.555V83.9224H101.904V87.8017H102.555V88.0603L102.685 89.0948L102.555 90.2586V90.7759H101.904V96.9828H101.252V98.2759H100.6V99.6983H99.6884V100.345H98.7762V100.862L96.952 101.121V101.638L95.1277 101.767V102.414H94.0853V103.06H93.4337V103.319L93.0428 103.578L92.3913 103.836V104.483L92.261 105ZM110.373 51.4655V52.1121H116.367V51.3362H117.149V50.431H118.322V49.6552H120.277L120.537 49.3965V46.8103H121.319V45.1293H121.971V44.2241H122.361V41.6379H123.143V40.4741L123.274 39.8276H122.361V38.0172H121.84L121.71 31.8103H121.058V24.8276H120.537V23.1466L120.016 22.8879V21.2069H118.973V19.1379H118.583L118.452 18.75V18.3621H117.149V17.8448H115.716L115.586 17.3276V17.069H114.804V16.4224H111.546V15.7759L110.895 15.6466H105.682L105.031 15.7759V16.4224H104.379V17.069H101.513V17.7155H101.122L99.4277 17.8448H98.255V18.3621H96.3004V19.7845H95.5186V20.5603H95.1277V21.8534H94.3459V27.1552H94.9974L95.1277 31.2931V35.3017H95.6489V41.7672H96.561L96.4307 42.0259V46.1638H97.2126V48.8793H97.9944V49.6552L98.6459 49.7845L98.7762 50.6897H99.4277L99.6884 51.0776V51.4655H103.076V50.9483H105.031V50.1724H106.855V50.9483H109.07V51.4655H110.373Z" fill="#8000FF"/>
<path d="M253.226 52.5C253.226 78.6859 231.835 99.9138 205.447 99.9138C179.06 99.9138 157.669 78.6859 157.669 52.5C157.669 26.3141 179.06 5.08621 205.447 5.08621C231.835 5.08621 253.226 26.3141 253.226 52.5Z" fill="#FFBD5A"/>
<path d="M307.65 102.543H299.31V101.897L298.007 101.767V101.121H297.226V100.474H296.574V96.9828H295.922V96.4655L295.792 95.1724V94.3966H295.141V92.1983H294.489V87.931L294.359 87.4138L293.838 87.2845L293.707 80.431H293.056V66.5948H292.404V61.1638H291.753V54.3103H291.101V53.6638L290.971 48.6207V43.9655L290.45 43.8362L290.319 37.1121L289.668 36.9828L289.538 35.9483V35.0431H288.886V31.5517L288.104 31.4224V28.0603H287.453V26.6379H286.931V25.9914H285.237L284.716 25.8621V25.3448H277.028V24.6983H262.564V25.3448H259.698V24.6983L259.046 24.569H258.395L258.264 24.181V23.9224L257.613 23.7931V23.2759H256.961V21.8534H256.31V21.3362L256.179 20.3017V19.7845H255.528V18.4914L254.876 18.3621L254.746 17.5862L254.225 17.7155L254.095 17.069L253.443 16.9397L253.313 16.681V16.2931H252.792V14.3534H253.313L253.443 12.931H254.095V12.2845H254.746V10.2155L255.528 10.0862V9.43966H256.179V9.05172L256.31 8.79311L258.916 8.66379V8.01724H262.564V7.5L263.867 7.24138V6.59483H271.425V7.24138H274.813L278.592 7.37069L279.113 7.5L279.243 8.01724L282.631 8.14655V8.66379L285.889 8.79311H290.319V9.43966H311.82V8.79311H312.471V9.43966H315.989V9.95689L316.641 10.0862L317.683 10.2155H318.074V10.7328L319.508 10.8621V11.5086H321.723L322.244 11.6379V12.1552L327.847 12.2845V12.8017L328.499 12.931V13.7069H329.15V14.2241L329.932 14.3534V14.6121L329.802 14.8707H330.584V15.6466H331.235V16.1638L332.017 16.2931V17.069H332.668V17.3276L332.799 17.7155L333.19 17.8448H333.45V18.4914H333.972V23.2759H333.45V25.9914H332.668V27.4138H332.017V28.0603H330.584V28.7069L329.802 28.8362V29.4828H328.499V30.1293H318.074V29.4828H316.641V28.8362H314.686V28.0603L312.602 27.931V27.4138H312.211L311.168 27.2845H310.386V26.6379H306.998V27.2845L306.217 27.4138V28.0603H305.695L305.565 28.5776L305.435 30.9052L305.565 32.9741L305.695 33.6207H306.217V36.5948L306.347 39.6983L306.868 39.8276L306.998 40.2155V54.9569H307.65V55.6034L307.78 56.5086L307.911 57.0259H308.301L308.432 57.8017V66.5948H309.083L309.214 75.6466L309.735 75.7759L309.865 76.1638V77.7155H310.386V85.9914H311.038V87.4138H311.82V92.9741H312.471V96.9828H311.82V99.0517L311.038 99.181V99.8276H310.386V100.474H309.865V101.121H308.432V101.767H307.78L307.65 102.284V102.543Z" fill="#8000FF"/>
<path d="M371.988 103.707H363.258V103.319L363.127 103.06H361.303V102.414H360.651V101.25H360V100.603H359.479V99.3103H358.827V98.5345L358.697 97.2414V96.8535H358.176V95.5603H357.654L357.524 95.1724V93.1034H356.873V91.1638H356.351L356.221 89.8707H355.7V88.7069H355.048V86.25H354.397V84.3103L353.745 84.4397V80.5603H353.224L353.094 80.0431V78.75H352.442V77.7155L352.573 76.1638V75.6466H353.094V73.0603H352.573L352.442 72.5431V63.1035H351.921V58.8362L351.27 58.7069V56.8965H351.791L351.921 56.3793V55.4741L351.791 54.9569H351.27V37.5H350.618V33.75H349.966V31.9397H349.315V24.4397H348.794L348.663 23.9224V22.6293H348.142V20.5603L348.012 20.0431H347.491V18.2328H346.839V15.7759H346.188V14.4828H345.666L345.536 12.5431H346.188V10.7328H346.839V10.0862H347.1L347.491 9.95689V8.79311H348.272V8.27586H350.618V7.62931H352.182V6.98275H352.963V6.3362H357.785V6.98275H360.782V7.62931H361.433V8.14655L362.345 8.27586L362.476 8.53448V8.79311H361.694V9.56897H362.476V12.5431H363.127V14.4828H363.909V17.5862H364.691V18.75H365.603V19.9138H366.255L366.385 21.0776H367.036V28.8362L367.167 29.4828H367.688V32.8448L367.036 32.9741V35.3017L367.167 35.9483H367.688V47.069H368.339V58.8362H368.991V68.2759H369.643V70.6034H370.164V74.0948H370.685V75.2586L370.815 76.681V77.1983H371.336V78.75L371.727 78.8793L371.858 79.2672V81.8535H372.509V82.5H373.03V83.5345H373.682V84.181H374.073V84.8276H382.152V84.181H389.579V83.6638H389.97L393.358 83.5345H396.485V84.181H402.61V85.3448H407.431L407.822 85.6034V86.25L409.125 86.5086V87.4138L410.298 87.6724V88.8362H412.252V89.7414H412.904V93.6207H413.425V96.8535H412.904V97.3707L412.773 98.0172L412.252 98.1466L412.122 98.6638H410.949V99.3103L410.298 99.4397V99.9569H409.776L409.646 100.603H408.473V101.121L406.519 101.25V101.767H397.788V101.509L397.658 101.25H395.313V101.767H394.01V101.25H393.358V101.767H392.055V101.25H391.403V101.767H386.452V102.414H382.021V103.06H371.988V103.707Z" fill="#8000FF"/>
<path d="M431.552 102.543H428.945V101.897H428.294V101.25H427.512V100.474H426.861V99.8276H426.209V98.5345H425.558V94.5259H424.906V88.4483H425.558V81.7241H424.906V81.3362L424.776 80.3017V79.7845H424.124V68.4052H423.473V62.9741H422.821V59.6121H422.17V55.4741L422.039 54.9569H421.518V51.5948H422.17V49.6552H421.518V47.5862H420.867L420.736 34.2672H420.085V30.9052H419.433V28.8362H418.782V22.7586H418.13V21.3362L418 20.819H417.479V20.1724H416.827L416.697 18.8793H416.045V14.7414H416.697V10.0862H417.479V9.43966H418.13V8.79311H418.782V8.14655H420.085V7.5H421.518V6.72414H422.821V6.07759H423.473V5.43103H426.209V6.07759H426.861V6.72414H428.164V7.11207L428.294 7.37069L429.597 7.5V8.79311H430.249V9.43966H430.9V10.0862H431.552V10.7328L431.682 11.5086H432.203V11.8966L432.333 14.2241V16.1638H432.985V17.4569H433.636V19.5259H434.288V24.181H433.636V25.4741H434.288V32.8448H434.94V36.8534L435.591 36.9828V41.8965L435.721 46.9397H436.373V50.3017H437.024V55.7328H437.676V62.9741H438.327V68.4052H438.979V73.7069H439.63V74.2241L439.761 75.2586V75.7759H440.412V78.3621H441.064V79.7845H441.715V87.1552H442.367V89.0948H441.715V94.5259H441.064V95.819H440.412V97.2414H439.63L439.761 97.8879H438.327V98.5345H437.024V99.181H436.373V99.8276H435.721L435.591 100.216V100.474L433.636 100.603V101.25H432.333V101.897H431.682L431.552 102.543Z" fill="#8000FF"/>
<path d="M495.554 102.543H491.123V101.767H489.69V101.121H488.257L488.126 100.345H487.344V99.6983L486.693 99.569L486.563 99.3103L486.432 98.9224H485.781L485.651 96.0776L484.999 95.9483V95.431L484.738 94.0086L484.608 93.1034H483.957L483.696 88.0603H484.347L483.957 83.7931L483.305 83.6638L482.784 75.7759H482.132V75.1293L481.872 73.5776V71.5086H482.523L480.699 46.9397L481.35 46.8103L481.09 43.319L480.438 43.1897L479.526 30.2586H478.875L478.744 28.8362H478.093L477.963 28.0603H477.181V27.4138H469.232L469.102 27.8017V28.0603H467.017L467.147 28.8362H448.253L448.123 28.0603H447.341V27.4138H446.689L446.429 26.7672L445.777 26.6379V25.9914L444.344 25.8621V25.6035L444.214 25.2155H443.562L443.432 23.6638H442.78L442.65 21.5948H441.868L441.607 17.9741H442.389L442.259 16.5517H442.91L442.78 15.1293H443.562V14.3534H444.995L444.865 13.7069L445.517 13.5776V12.931L446.168 12.8017L446.298 12.1552H449.165L449.035 11.6379L449.556 11.5086H467.277V10.7328H471.708L471.578 10.0862H478.093V9.31034H489.038V8.66379H503.502V9.31034L509.366 9.43966V10.0862H510.148L510.278 10.7328H510.93V11.3793L511.581 11.5086L511.712 11.8966L511.842 12.1552H515.49V12.8017L516.924 12.931V13.7069H518.357L518.487 14.3534H519.139V15.1293H519.921L520.051 17.1983H520.442L520.833 17.3276L520.963 17.9741L520.833 18.6207L520.181 18.75L520.312 20.1724H519.53V20.819H518.878L519.009 22.2414H518.227V23.0172H516.142L516.272 23.6638L513.405 23.7931L513.275 24.4397H512.884L510.669 24.569H508.975L509.105 25.0862L508.584 25.2155H505.327V25.8621H504.936L502.46 25.9914H500.375V26.6379H496.726L496.857 27.4138H496.075V28.0603H495.423L495.554 28.8362H494.772L495.163 34.5259L494.511 34.6552V35.3017H495.163L495.554 40.9914L494.902 41.1207L495.163 45.3879L495.945 45.5172L496.075 48.3621H495.423L495.554 50.431H496.205L496.726 57.6724H496.075L496.205 59.0948L496.857 59.2241L497.248 64.1379H496.596L496.987 69.9569L497.639 70.0862L497.769 72.931L498.16 75.7759H498.811L498.942 77.9741H498.16L498.29 79.3966L498.551 80.819H499.072L499.333 83.6638L499.984 83.7931L500.505 88.0603H501.157V89.7414L501.417 90.2586H501.939L502.199 93.75H501.678L501.548 94.0086V95.3017H500.896L501.027 97.5H500.375L500.505 99.6983H499.723V100.345H499.072V100.991L496.987 101.121V101.767H495.554V102.543Z" fill="#8000FF"/>
<path d="M564.322 103.578H557.155V102.802H554.028V102.026H552.464V101.25H550.901V100.474H550.119V98.9224L549.337 98.7931V98.1466L547.773 98.0172V96.5948H546.992V95.0431H546.21V93.3621H545.428V91.1638L544.646 91.0345V88.8362L543.864 88.7069L543.734 86.3793H543.082V85.8621L542.952 84.6983V84.0517H542.301V83.4052L542.17 80.5603L542.301 77.5862V77.069H542.952V76.2931H542.301V75.7759L542.17 74.2241V73.1897H541.519V69.6983L541.388 66.2069L540.737 66.0776V63.3621L540.607 60.7759L539.955 60.6465V56.7672H539.173V43.5776H538.261V29.4828H537.479V25.6035H538.261V24.8276H537.479L537.61 24.0517H538.261V23.6638L538.391 23.2759H537.479V17.069H538.261V14.7414H537.479V13.9655H538.261V11.5086H539.173V10.8621H540.607L540.737 10.0862H541.388L541.519 8.53448H542.17V8.14655L542.301 7.75862L554.028 7.62931L554.158 7.24138V6.85344H569.013V6.07759H573.704V5.43103L579.307 5.30173H584.78V6.07759H585.562V6.85344H586.995V7.24138L587.125 7.62931L587.777 7.75862L587.907 8.40517L588.559 8.53448L588.689 9.18103L589.341 9.31034V10.0862H590.253V10.8621H591.035V11.5086H591.686V13.9655H591.035V14.7414H590.253L590.122 15.1293V15.3879L589.471 15.5172L589.341 16.2931H588.689L588.559 16.9397V17.7155H586.344L586.213 17.9741V18.3621L586.344 18.4914L585.692 18.6207H583.086V19.3965H580.741V20.1724H572.14V20.9483H570.577V21.7241H568.231L568.101 22.1121V22.5H562.628V23.2759H558.719V24.0517H557.937V26.3793H557.155V27.931H556.373V41.25H557.155V45.9052H557.937V46.681H558.719V47.4569H561.065L561.195 48.2328H572.922V49.0086H576.831V48.2328H579.177V47.4569L580.741 47.3276V46.681H582.304V45.9052H584.78V45.1293H589.341V45.5172L589.471 45.9052H590.253V46.681H590.904V47.4569H591.686L591.816 49.0086H592.468V49.6552L592.598 50.819V51.3362H593.25L593.38 52.1121V55.2155H592.598V58.319H592.468L591.947 58.4483H591.686V59.2241H591.035V59.8707H587.125L586.995 60.2586V60.6465H583.998V61.4224H582.304V62.1983H580.741V63.1035H578.395V63.75H577.744L570.837 63.8793H563.41V64.6552H561.065V65.431L560.283 65.3017V66.8534H559.631L559.501 67.7586V73.1897H560.283V78.6207H561.065V79.7845L561.195 80.9483H561.846L561.977 82.5L562.628 82.6293L562.758 83.2759L563.41 83.4052V84.0517H564.192V84.4397L564.322 84.8276H565.755L565.886 85.2155V85.6034H569.013V84.8276H575.268V84.0517H577.613V83.4052L578.265 83.2759H580.741V82.6293L585.432 82.5L585.562 82.1121V81.7241H589.341V81.3362L589.471 80.9483H594.032L594.162 81.3362V81.7241H595.726V83.2759L596.507 83.4052V84.8276H597.289V86.3793H597.941L598.071 87.931H598.723L598.853 88.5776V91.8103L597.289 91.9397V92.5862L594.944 92.7155V93.1034L594.813 93.3621H593.38V94.2672H591.686V95.0431H588.559V95.819H586.344V96.2069L586.213 96.5948H583.216L583.086 96.9828V97.3707H581.522V98.1466H578.395V98.7931L577.744 98.9224H576.05V99.6983H574.486V100.474H572.922V101.25H569.013V102.026H566.668V102.802H564.322V103.578Z" fill="#8000FF"/>
<path d="M626.357 71.25H621.536V70.7328H620.363L620.233 70.0862H619.712L619.582 69.0517H619.06L618.93 68.7931V68.5345H618.409L618.279 67.3707H617.757L617.627 66.2069H616.975L616.454 60H617.236L615.803 40.3448H615.021L614.369 31.2931H613.848L613.197 23.4052H612.675L612.415 19.3965H612.936V18.3621H612.285L612.154 16.1638L611.503 16.0345L611.372 13.8362H611.894V11.6379H612.415L612.285 9.95689L612.806 9.82758V9.31034H613.457V8.79311H613.718L613.979 8.66379L613.848 7.62931H614.5V7.11207H615.021V6.59483H616.845L616.715 5.94828H618.018V6.59483H619.842V7.11207H620.363L620.494 7.62931H621.015V7.88793L621.145 8.27586H621.666L621.797 8.79311H622.318V9.31034H622.839L622.97 9.82758H623.621L623.751 12.1552H624.273L624.664 16.0345H624.012L624.142 17.1983H624.664L624.924 19.3965L625.445 19.5259L625.576 22.2414H625.054L625.185 23.9224H625.706L625.836 25.0862L626.097 26.25H626.488L626.618 26.6379L627.139 34.1379H627.791V35.3017H627.27L627.661 40.3448H628.182L628.442 43.8362L628.573 44.2241H628.964L629.094 44.7414L629.354 46.681L629.485 48.2328H628.833V49.2672L629.354 49.3965L629.485 49.7845L629.615 50.6897V52.1121H629.094V52.6293L629.615 52.7586L630.006 57.1552L629.485 57.2845V57.8017H630.006V58.1897L630.397 60.1293V61.681H631.048L631.179 64.0086H630.657L630.788 66.2069H630.136V67.3707H629.615L629.745 68.5345H629.094V69.569H628.573V70.0862H627.4V70.7328H626.357V71.25ZM630.527 102.802H625.706V102.284H624.403V101.767L623.1 101.638V101.121H622.579V100.603H621.927V99.4397H621.406L621.276 98.9224H620.624V98.2759H619.972V97.7586H619.321L619.06 93.8793H618.409L618.148 89.8707H618.669V88.7069H619.191V88.4483L619.321 88.1897H619.842L619.712 85.9914H620.233L620.363 85.3448L620.233 84.569V83.6638H620.754L620.494 80.9483H621.015V80.3017H621.536V79.7845H622.188V79.1379H622.709V78.6207H623.36V78.1035H623.882V77.4569H624.403L624.273 76.9397H625.054L624.924 76.4224L626.097 76.2931L625.967 75.7759H627.27V76.2931L629.094 76.4224V76.9397H630.397V78.1035H631.048V78.6207H631.57L631.7 79.3966L631.83 80.3017H632.351L632.482 81.9828H633.003L633.133 83.1466H633.654L633.785 84.8276H634.436L634.958 91.0345H635.479V91.5517H634.958L635.088 92.069H635.609V92.7155H635.088V93.2328H635.609L636 97.2414H635.349L635.479 98.9224H634.827V99.4397H634.306L634.436 100.603H633.915V101.121H633.394V101.638H632.873L632.091 101.767H631.439L631.57 102.284H630.397L630.527 102.802Z" fill="#8000FF"/>
</svg>
